<svg id="Capa_1" enable-background="new 0 0 512 512" height="512" viewBox="0 0 512 512" width="512" xmlns="http://www.w3.org/2000/svg"><g><path d="m301 0h-240v512h390v-362z" fill="#edf9ff"/><path d="m451 150v362h-195v-512h45z" fill="#c0e1f0"/><path d="m301 240h90v30h-90z" fill="#8fc3d9"/><path d="m451 128.699v21.301h-150v-150h21.301z" fill="#8fc3d9"/><g><g><path d="m166 150c-8.276 0-15-6.724-15-15s6.724-15 15-15 15 6.724 15 15h30c0-19.565-12.563-36.048-30-42.246v-32.754h-15-15v32.754c-17.437 6.198-30 22.681-30 42.246 0 24.853 20.147 45 45 45 8.276 0 15 6.724 15 15s-6.724 15-15 15-15-6.724-15-15h-30c0 19.565 12.563 36.048 30 42.246v32.754h15 15v-32.754c17.437-6.198 30-22.681 30-42.246 0-24.853-20.147-45-45-45z" fill="#97de3d"/></g><g fill="#59c36a"><path d="m181 237.246c17.437-6.198 30-22.681 30-42.246 0-24.853-20.147-45-45-45v30c8.276 0 15 6.724 15 15s-6.724 15-15 15v60h15z"/><path d="m181 135h30c0-19.565-12.563-36.048-30-42.246v-32.754h-15v60c8.276 0 15 6.724 15 15z"/></g></g><g fill="#c0e1f0"><path d="m121 300h270v30h-270z"/><path d="m121 360h270v30h-270z"/><path d="m121 420h270v30h-270z"/><path d="m241 240h30v30h-30z"/></g><path d="m256 240h15v30h-15z" fill="#8fc3d9"/><path d="m256 300h135v30h-135z" fill="#8fc3d9"/><path d="m256 360h135v30h-135z" fill="#8fc3d9"/><path d="m256 420h135v30h-135z" fill="#8fc3d9"/></g></svg>